<?xml version="1.0" encoding="UTF-8"?>
<svg version="1.1" xmlns="http://www.w3.org/2000/svg" width="1024" height="1024" viewBox="0 0 1024 1024">
<path d="M0 0 C1.09899628 -0.01606293 2.19799255 -0.03212585 3.33029175 -0.04867554 C8.3863658 -0.09336959 13.44230912 -0.13424372 18.49853516 -0.15722656 C21.15444124 -0.17047902 23.80850393 -0.20090498 26.46435547 -0.23925781 C30.30996542 -0.29446944 34.15453347 -0.31597555 38.00048828 -0.33056641 C39.17078583 -0.35323578 40.34108337 -0.37590515 41.54684448 -0.39926147 C50.16520528 -0.37753458 56.80655889 1.68691435 64.63330078 5.19287109 C65.96234471 5.74326147 67.29230107 6.29146246 68.6237793 6.8359375 C69.74196045 7.31724121 70.8601416 7.79854492 72.01220703 8.29443359 C72.96876945 8.70503525 72.96876945 8.70503525 73.94465637 9.12393188 C76.02939424 10.01955399 78.11258919 10.91870534 80.19580078 11.81787109 C81.71540788 12.47139352 83.23510464 13.12470753 84.75488281 13.77783203 C93.21597505 17.41642167 101.66937126 21.0727708 110.12158203 24.73193359 C113.75035809 26.30254711 117.37928326 27.87281559 121.00830078 29.44287109 C121.92500549 29.83957001 122.84171021 30.23626892 123.78619385 30.64498901 C138.95250718 37.20509886 154.16105281 43.66068106 169.39276123 50.06732178 C184.18112637 56.2882256 198.92548283 62.6038913 213.62524414 69.03149414 C214.69826027 69.49885735 214.69826027 69.49885735 215.79295349 69.97566223 C217.68789741 70.80105708 219.58155936 71.62939341 221.47509766 72.45800781 C222.11482954 72.72377027 222.75456142 72.98953272 223.41367912 73.26334858 C225.08172035 73.96188289 226.73624804 74.69282598 228.38333321 75.4394331 C236.77414373 79.02104769 243.78960335 79.86368069 252.84960938 79.6652832 C254.21944529 79.65401558 255.5893021 79.64508869 256.95916748 79.63829041 C259.88022337 79.61927654 262.80052173 79.58487582 265.72126389 79.53812981 C270.34482659 79.46504288 274.96816246 79.43242107 279.5921936 79.40565491 C291.06578341 79.33300955 302.53869605 79.20580469 314.01171875 79.07232666 C322.95401245 78.96905078 331.8960017 78.87995712 340.83878195 78.8316918 C345.43127494 78.80530912 350.02225741 78.75048199 354.61417079 78.67365444 C357.47049363 78.63197323 360.32656559 78.61543996 363.18315887 78.60569191 C365.12975732 78.59152726 367.07606402 78.54721676 369.02218628 78.50189209 C378.59112443 78.51026058 378.59112443 78.51026058 382.83389282 82.07423401 C384.35672951 83.65738773 384.35672951 83.65738773 385.63330078 85.19287109 C386.36935547 86.01787109 387.10541016 86.84287109 387.86376953 87.69287109 C388.50958984 88.51787109 389.15541016 89.34287109 389.82080078 90.19287109 C393.32263776 94.58207832 396.90350505 98.87852711 400.57080078 103.13037109 C401.58645419 104.31784679 402.60207926 105.50534673 403.61767578 106.69287109 C405.58349672 108.9859061 407.57400233 111.25318099 409.58642578 113.50537109 C410.49807562 114.54687016 411.40954293 115.58852904 412.32080078 116.63037109 C413.53316406 117.9896875 413.53316406 117.9896875 414.77001953 119.37646484 C416.98639801 122.72658829 417.43314998 125.20891701 417.63330078 129.19287109 C415.64600232 132.58296847 412.27517618 133.20235111 408.63330078 134.19287109 C405.59072023 134.45224547 402.56786549 134.42666761 399.51611328 134.38818359 C398.75548584 134.38616943 397.9948584 134.38415527 397.21118164 134.38208008 C394.39349257 134.37168477 391.57589006 134.34376258 388.75830078 134.31787109 C382.44705078 134.27662109 376.13580078 134.23537109 369.63330078 134.19287109 C369.63330078 157.29287109 369.63330078 180.39287109 369.63330078 204.19287109 C371.28330078 204.52287109 372.93330078 204.85287109 374.63330078 205.19287109 C376.61767578 206.93505859 376.61767578 206.93505859 378.38330078 209.06787109 C378.97626953 209.76654297 379.56923828 210.46521484 380.18017578 211.18505859 C382.98431276 215.05959194 382.94333653 218.54233483 382.63330078 223.19287109 C381.88463088 225.8054709 380.94425457 227.76517889 379.63330078 230.19287109 C378.64330078 230.52287109 377.65330078 230.85287109 376.63330078 231.19287109 C376.63330078 234.82287109 376.63330078 238.45287109 376.63330078 242.19287109 C377.64392578 242.25474609 378.65455078 242.31662109 379.69580078 242.38037109 C397.13047757 244.6477983 418.98846512 254.69105168 430.63330078 268.19287109 C430.63330078 268.85287109 430.63330078 269.51287109 430.63330078 270.19287109 C426.90225633 272.39404812 423.12057286 274.48794877 419.32080078 276.56787109 C417.74202148 277.50179687 417.74202148 277.50179687 416.13134766 278.45458984 C408.2602046 282.66867874 408.2602046 282.66867874 403.640625 281.31762695 C400.83065757 279.76421759 398.25378514 278.04464876 395.63330078 276.19287109 C374.25471327 265.293275 349.37205899 264.06995235 326.63330078 271.19287109 C315.60147697 274.95008645 305.13869079 280.62483084 296.88720703 288.97021484 C294.63330078 291.19287109 294.63330078 291.19287109 292.63330078 291.19287109 C292.35873047 291.78970703 292.08416016 292.38654297 291.80126953 293.00146484 C290.68320559 295.09923698 289.55822704 296.52808708 287.94580078 298.25537109 C271.1597188 317.57366009 266.98797606 341.32852445 268.63330078 366.19287109 C268.92964988 367.53490913 269.2500557 368.87301804 269.63330078 370.19287109 C274.38330684 371.34675584 276.8048767 371.10163587 281.13330078 368.86865234 C282.17405762 368.34053955 283.21481445 367.81242676 284.28710938 367.26831055 C285.39135254 366.68654053 286.4955957 366.10477051 287.63330078 365.50537109 C288.78523926 364.91393311 289.93717773 364.32249512 291.12402344 363.71313477 C299.39213015 359.44255013 307.57143318 355.00929803 315.71655273 350.5090332 C322.50217874 346.76892925 329.38103713 343.26201328 336.32641602 339.82958984 C342.55853927 336.74575381 348.72059061 333.54733559 354.86328125 330.28955078 C359.72743644 327.71365393 364.60620052 325.16805917 369.50048828 322.64990234 C370.10324081 322.33970154 370.70599335 322.02950073 371.32701111 321.7098999 C371.93815262 321.39538879 372.54929413 321.08087769 373.17895508 320.75683594 C382.93204869 315.73736777 392.65693551 310.68672933 402.25830078 305.38037109 C414.09416537 298.84478778 426.1388148 292.72077902 438.17207336 286.55960083 C438.90435654 286.1846347 439.63663971 285.80966858 440.39111328 285.42333984 C441.11264084 285.0539328 441.8341684 284.68452576 442.57756042 284.30392456 C448.3045235 281.36871424 454.00804952 278.39090997 459.69580078 275.38037109 C477.08096613 266.19287109 477.08096613 266.19287109 479.63330078 266.19287109 C479.63330078 274.11287109 479.63330078 282.03287109 479.63330078 290.19287109 C466.57142704 297.41858848 453.4225542 304.39935239 440.13330078 311.19287109 C430.65244287 316.0397121 421.1946668 320.90015115 411.88330078 326.06787109 C400.08993609 332.60581545 388.06298654 338.69154746 376.05029297 344.81347656 C366.29256744 349.78824815 356.57537966 354.83230618 346.89038086 359.94726562 C342.57371052 362.22697097 338.24323195 364.47936929 333.90917969 366.72583008 C325.80190003 370.92934982 317.74918868 375.20987992 309.75830078 379.63037109 C298.12039654 386.05453813 286.2615951 392.04259053 274.41818237 398.0760498 C261.64972697 404.58352514 248.9594389 411.18939033 236.45629883 418.19750977 C235.85470947 418.525979 235.25312012 418.85444824 234.63330078 419.19287109 C233.95759033 419.56581299 233.28187988 419.93875488 232.58569336 420.32299805 C230.63330078 421.19287109 230.63330078 421.19287109 227.63330078 421.19287109 C227.63330078 413.60287109 227.63330078 406.01287109 227.63330078 398.19287109 C234.50830078 394.44287109 234.50830078 394.44287109 236.66796875 393.28759766 C239.18941949 391.8787001 241.30778977 390.60952518 243.09814453 388.31787109 C243.83314193 385.39934127 243.6149904 382.9343896 243.32080078 379.94287109 C243.17191406 378.32638672 243.17191406 378.32638672 243.02001953 376.67724609 C242.74634017 374.21136738 242.43820996 371.74919898 242.10595703 369.29052734 C238.32301115 339.22132665 247.47041128 309.50005222 264.82080078 285.06787109 C283.84019577 260.86733057 309.55668463 245.36087928 340.05908203 240.66552734 C342.24452576 240.43987332 344.43889041 240.30079292 346.63330078 240.19287109 C346.63330078 237.55287109 346.63330078 234.91287109 346.63330078 232.19287109 C345.72580078 232.13099609 344.81830078 232.06912109 343.88330078 232.00537109 C340.63330078 231.19287109 340.63330078 231.19287109 338.32080078 229.13037109 C335.4530734 224.1384012 335.29589444 220.002596 336.32080078 214.50537109 C338.43359207 209.17308831 340.49088259 206.76408019 345.63330078 204.19287109 C345.96330078 181.09287109 346.29330078 157.99287109 346.63330078 134.19287109 C252.91330078 134.19287109 159.19330078 134.19287109 62.63330078 134.19287109 C62.63330078 241.11287109 62.63330078 348.03287109 62.63330078 458.19287109 C70.22330078 458.19287109 77.81330078 458.19287109 85.63330078 458.19287109 C95.81511896 462.55650746 95.81511896 462.55650746 98.63330078 468.19287109 C98.74363142 469.78935372 98.79241129 471.39028805 98.81030273 472.99047852 C98.82955559 474.48794868 98.82955559 474.48794868 98.84919739 476.01567078 C98.85658432 477.09895157 98.86397125 478.18223236 98.87158203 479.29833984 C98.88368965 480.96718987 98.88368965 480.96718987 98.89604187 482.66975403 C98.90989251 485.02941322 98.92061026 487.38909253 98.9284668 489.7487793 C98.94564805 493.34837183 98.98952308 496.94703858 99.03369141 500.54638672 C99.04382094 502.83869767 99.05233623 505.13101644 99.05908203 507.42333984 C99.07659012 508.49649948 99.09409821 509.56965912 99.11213684 510.67533875 C99.09371093 517.06221694 98.67969463 521.13354706 94.63330078 526.19287109 C88.51064862 530.72492949 83.28890353 530.76553734 75.82641602 530.71044922 C74.06906631 530.72096313 74.06906631 530.72096313 72.2762146 530.73168945 C68.41453149 530.74925412 64.55358473 530.73765191 60.69189453 530.72412109 C58.00341705 530.72501249 55.31495258 530.73069298 52.6264801 530.73571777 C46.99691832 530.74298169 41.36756691 530.73343868 35.73803711 530.71435547 C29.23892515 530.69257828 22.74031502 530.69964883 16.24121517 530.72166109 C10.64947555 530.73983853 5.05788661 530.74236238 -0.53387302 530.73190641 C-3.86857445 530.72568551 -7.20285141 530.72637822 -10.53756905 530.73805237 C-14.25512754 530.74821183 -17.97172227 530.73272361 -21.68920898 530.71044922 C-22.78807938 530.71854614 -23.88694977 530.72664307 -25.01911926 530.73498535 C-31.12636508 530.66720104 -34.72513318 530.28298921 -39.36669922 526.19287109 C-43.13569902 522.01641186 -44.47871361 519.03257572 -44.54370117 513.44946289 C-44.56295403 512.00732674 -44.56295403 512.00732674 -44.58259583 510.53605652 C-44.58998276 509.49854752 -44.59736969 508.46103851 -44.60498047 507.39208984 C-44.61305222 506.32295853 -44.62112396 505.25382721 -44.62944031 504.15229797 C-44.64327513 501.88857645 -44.65399997 499.62483412 -44.66186523 497.36108398 C-44.67908045 493.90421935 -44.72297338 490.44831049 -44.76708984 486.99169922 C-44.77721675 484.79183646 -44.78573286 482.59196557 -44.79248047 480.39208984 C-44.80998856 479.36065353 -44.82749664 478.32921722 -44.84553528 477.26652527 C-44.8273395 471.22806515 -44.37716524 467.79642448 -40.36669922 463.19287109 C-30.857523 454.39688309 -21.44373234 458.19287109 -7.36669922 458.19287109 C-7.36669922 359.19287109 -7.36669922 260.19287109 -7.36669922 158.19287109 C-39.37669922 158.19287109 -71.38669922 158.19287109 -104.36669922 158.19287109 C-110.48316678 152.07640353 -110.48316678 152.07640353 -110.54370117 144.98657227 C-110.55653641 143.68149216 -110.56937164 142.37641205 -110.58259583 141.03178406 C-110.59076335 139.59980651 -110.59820706 138.16782467 -110.60498047 136.73583984 C-110.609056 136.01576563 -110.61313152 135.29569141 -110.61733055 134.55379677 C-110.63819231 130.74200349 -110.65249312 126.93024622 -110.66186523 123.1184082 C-110.67292583 119.1839827 -110.70732055 115.25012339 -110.74703693 111.31589794 C-110.77320192 108.28838561 -110.78155695 105.26100816 -110.78514671 102.23339272 C-110.7900136 100.7833302 -110.80163068 99.33327374 -110.82018471 97.88332176 C-110.84456719 95.85147121 -110.84119222 93.81934533 -110.83666992 91.78735352 C-110.84253616 90.63200607 -110.8484024 89.47665863 -110.85444641 88.28630066 C-110.25956531 84.51339776 -109.05027134 82.86676653 -106.36669922 80.19287109 C-103.36669922 79.19287109 -103.36669922 79.19287109 -99.78648376 79.4708252 C-91.14711006 80.04452497 -85.20565629 78.95064999 -78.55629826 73.17566681 C-74.52721712 69.33428584 -70.68917963 65.3358263 -66.87060547 61.28662109 C-65.18107769 59.56024376 -63.4875577 57.83776528 -61.79026794 56.11901855 C-57.3587285 51.61168486 -52.97982784 47.05657088 -48.61132812 42.48822021 C-43.27574802 36.92741025 -37.88059077 31.4244976 -32.49358273 25.91358185 C-28.30861756 21.63033968 -24.13332903 17.33891395 -19.98475647 13.02038574 C-19.22403336 12.23165573 -18.46331024 11.44292572 -17.67953491 10.6302948 C-16.25760106 9.15519722 -14.83968691 7.67621033 -13.42652893 6.19270325 C-12.80052795 5.54488388 -12.17452698 4.89706451 -11.52955627 4.22961426 C-10.71703573 3.38120846 -10.71703573 3.38120846 -9.88810062 2.51566315 C-6.89949784 -0.0827964 -3.77155995 0.05017326 0 0 Z M53.63330078 33.19287109 C54.1989086 43.56916979 55.22469057 53.76868481 56.63330078 64.06787109 C56.81333357 65.43631529 56.99302226 66.80480481 57.17236328 68.17333984 C57.42664589 74.08859146 57.42664589 74.08859146 59.63330078 79.19287109 C62.99997794 79.57579184 66.40094369 79.62404921 69.78564453 79.75146484 C70.88166489 79.79371689 71.97768524 79.83596893 73.10691833 79.87950134 C88.95015735 80.41817621 104.80346417 80.30418149 120.65350342 80.26153564 C124.95210259 80.25111242 129.25070811 80.24669831 133.54931641 80.24169922 C141.91066133 80.23112952 150.27197633 80.21417451 158.63330078 80.19287109 C158.63330078 79.53287109 158.63330078 78.87287109 158.63330078 78.19287109 C158.06039307 77.95391113 157.48748535 77.71495117 156.8972168 77.46875 C142.13754199 71.29842782 127.4619319 64.95124918 112.82080078 58.50537109 C99.59648333 52.68450134 86.36524207 46.88079006 73.10635376 41.13900757 C71.4631402 40.42729375 69.820214 39.71491611 68.17758179 39.00186157 C65.91363591 38.01936605 63.64865564 37.03930019 61.38330078 36.06005859 C60.70934769 35.76724503 60.03539459 35.47443146 59.34101868 35.17274475 C56.5842728 33.78486423 56.5842728 33.78486423 53.63330078 33.19287109 Z M-3.50341797 36.09912109 C-4.34517578 36.95505859 -5.18693359 37.81099609 -6.05419922 38.69287109 C-6.88306641 39.52818359 -7.71193359 40.36349609 -8.56591797 41.22412109 C-10.58082438 43.31728327 -12.47663257 45.48409796 -14.35888672 47.69677734 C-19.83017219 53.99885177 -25.87291721 59.76662707 -31.80419922 65.63037109 C-34.18073294 67.9803972 -36.55398006 70.33367216 -38.92529297 72.68896484 C-39.47205185 73.22742538 -40.01881073 73.76588593 -40.58213806 74.32066345 C-41.8625898 75.59262106 -43.1175714 76.89013839 -44.36669922 78.19287109 C-44.36669922 78.52287109 -44.36669922 78.85287109 -44.36669922 79.19287109 C-31.16669922 79.19287109 -17.96669922 79.19287109 -4.36669922 79.19287109 C-2.65844273 75.77635812 -2.10463899 74.51525688 -1.86425781 70.97509766 C-1.80434662 70.15454895 -1.74443542 69.33400024 -1.68270874 68.48858643 C-1.62740997 67.61240662 -1.57211121 66.73622681 -1.51513672 65.83349609 C-1.45137848 64.92911804 -1.38762024 64.02473999 -1.32192993 63.09295654 C-1.12052902 60.21008101 -0.93096722 57.3265661 -0.74169922 54.44287109 C-0.60706264 52.48578602 -0.47165504 50.52875383 -0.33544922 48.57177734 C-0.00358943 43.77937581 0.31765624 38.98636682 0.63330078 34.19287109 C-1.59520656 33.97096526 -1.59520656 33.97096526 -3.50341797 36.09912109 Z " fill="#000000" transform="translate(306.36669921875,246.80712890625)"/>
<path d="M0 0 C0.1746354 3.89526499 0.28096492 7.7895219 0.375 11.6875 C0.42527344 12.79029297 0.47554687 13.89308594 0.52734375 15.02929688 C0.67346985 23.09058663 0.67346985 23.09058663 -1.29199219 25.74462891 C-2.8984375 27.01953125 -2.8984375 27.01953125 -6 29 C-7.83901808 31.88142139 -8.25507641 34.14957232 -8.30859375 37.53515625 C-8.33131348 38.41695557 -8.3540332 39.29875488 -8.37744141 40.20727539 C-8.39726074 41.14949951 -8.41708008 42.09172363 -8.4375 43.0625 C-9.68325278 77.7131988 -20.87673602 109.2161786 -46.2265625 133.56640625 C-70.8645891 155.18540705 -100.39967145 164.66785809 -133.04150391 163.21142578 C-152.49338027 161.8213181 -171.07043951 155.21048158 -187 144 C-187.66 143.01 -188.32 142.02 -189 141 C-185.79982703 139.17280446 -182.58859999 137.3659598 -179.375 135.5625 C-178.47136719 135.04623047 -177.56773437 134.52996094 -176.63671875 133.99804688 C-167.6175325 128.96178594 -167.6175325 128.96178594 -163 129 C-160.3123008 129.83156902 -157.87911329 130.70753432 -155.3125 131.8125 C-135.04844438 140.43334448 -110.4027172 139.26574576 -90.15625 131.1171875 C-66.56163531 120.95767913 -50.038539 103.62128658 -40.31640625 79.7265625 C-36.02545219 67.57946999 -34.63727663 55.77871394 -34 43 C-34.88856689 43.47195801 -35.77713379 43.94391602 -36.69262695 44.43017578 C-40.89839362 46.66340187 -45.10523805 48.89459238 -49.3125 51.125 C-50.08130493 51.53260559 -50.85010986 51.94021118 -51.64221191 52.36016846 C-61.81743646 57.7526088 -72.01437113 63.09811175 -82.25 68.375 C-89.97498028 72.35874684 -97.64427948 76.41829617 -105.25 80.625 C-116.40146067 86.78742556 -127.75806678 92.54141959 -139.10650635 98.32937622 C-148.5102488 103.1277483 -157.89360463 107.93753808 -167.125 113.0625 C-179.25425422 119.79514508 -191.63486452 126.04093016 -203.98388672 132.35740662 C-204.76135254 132.75508743 -205.53881836 133.15276825 -206.33984375 133.5625 C-207.10538574 133.95401749 -207.87092773 134.34553497 -208.65966797 134.74891663 C-218.78233028 139.92997686 -228.83195866 145.2458472 -238.8671875 150.59375 C-240.06456543 151.23062744 -240.06456543 151.23062744 -241.28613281 151.88037109 C-242.80480787 152.6885345 -244.32244923 153.4986445 -245.83886719 154.31103516 C-250.88848591 157 -250.88848591 157 -252 157 C-252 148.75 -252 140.5 -252 132 C-238.92424208 124.78578873 -225.77690506 117.78140403 -212.48980713 110.96942139 C-204.03378164 106.63183203 -195.63360239 102.21818237 -187.3125 97.625 C-179.73056967 93.44095196 -172.06943479 89.47554041 -164.30786133 85.63598633 C-153.32981307 80.20054798 -142.52685261 74.4409433 -131.7421875 68.6328125 C-118.86513249 61.70109146 -105.94706494 54.86770751 -92.9375 48.1875 C-91.87382706 47.64127487 -91.87382706 47.64127487 -90.78866577 47.08401489 C-88.02713208 45.6660712 -85.26554243 44.24823655 -82.50386047 42.83058167 C-72.1647461 37.52025582 -61.88948655 32.09402476 -51.65234375 26.58984375 C-39.08122415 19.83120588 -26.48591187 13.12784079 -13.8125 6.5625 C-13.17105042 6.22940826 -12.52960083 5.89631653 -11.86871338 5.5531311 C-10.06603578 4.61770818 -8.26157842 3.68571744 -6.45703125 2.75390625 C-5.42553955 2.22095947 -4.39404785 1.6880127 -3.33129883 1.13891602 C-1 0 -1 0 0 0 Z " fill="#000000" transform="translate(786,558)"/>
</svg>
